Coordinates
version=1
nRows=49
nColumns=12
inDegrees=yes

Units are S.I. units (second, meters, Newtons, ...)
Angles are in degrees

endheader
time	SC_y	SC_z	SC_x	AC_y	AC_z	AC_x	GH_y	GH_z	GH_yy	EL_x	PS_y
       0.0              -38.68          38.03           48.7          55.95         -5.828         -4.368          3.527         -16.84         -135.2          130.2          91.77
   0.01729              -38.68          38.02           48.7          55.95         -5.828         -4.366          3.543         -16.83         -135.1          130.1          91.77
   0.03458              -38.68          38.02           48.7          55.95         -5.829         -4.365           3.56         -16.81         -135.1          130.1          91.76
   0.05187              -38.68          38.01           48.7          55.94         -5.829         -4.363          3.578          -16.8         -135.1          130.1          91.76
   0.06916              -38.68           38.0           48.7          55.94          -5.83         -4.362          3.597         -16.79         -135.0          130.1          91.75
   0.08645              -38.68           38.0           48.7          55.94          -5.83          -4.36          3.617         -16.78         -135.0          130.1          91.74
    0.1037              -38.68          37.99          48.69          55.93         -5.831         -4.359          3.639         -16.76         -135.0          130.1          91.73
     0.121              -38.68          37.98          48.69          55.93         -5.832         -4.357          3.662         -16.75         -134.9          130.0          91.72
    0.1383              -38.68          37.97          48.69          55.92         -5.833         -4.355          3.687         -16.73         -134.9          130.0          91.71
    0.1556              -38.68          37.96          48.69          55.92         -5.834         -4.353          3.714         -16.71         -134.8          130.0           91.7
    0.1729              -38.68          37.95          48.68          55.92         -5.834          -4.35          3.743         -16.69         -134.7          130.0          91.69
    0.1902              -38.68          37.94          48.68          55.91         -5.835         -4.348          3.774         -16.67         -134.7          130.0          91.68
    0.2075              -38.68          37.93          48.68           55.9         -5.837         -4.345          3.807         -16.65         -134.6          129.9          91.67
    0.2248              -38.68          37.92          48.68           55.9         -5.838         -4.342          3.843         -16.63         -134.5          129.9          91.66
    0.2421              -38.68           37.9          48.67          55.89         -5.839         -4.339          3.882          -16.6         -134.5          129.9          91.64
    0.2594              -38.68          37.89          48.67          55.89          -5.84         -4.336          3.925         -16.57         -134.4          129.8          91.63
    0.2767              -38.68          37.87          48.67          55.88         -5.842         -4.332          3.971         -16.54         -134.3          129.8          91.61
    0.2939              -38.68          37.86          48.66          55.87         -5.843         -4.328          4.021         -16.51         -134.2          129.8          91.59
    0.3112              -38.68          37.84          48.66          55.86         -5.845         -4.324          4.076         -16.47         -134.1          129.7          91.57
    0.3285              -38.68          37.82          48.65          55.85         -5.847         -4.319          4.135         -16.44         -133.9          129.7          91.55
    0.3458              -38.68          37.79          48.65          55.84         -5.849         -4.314          4.201         -16.39         -133.8          129.6          91.52
    0.3631              -38.68          37.77          48.64          55.83         -5.851         -4.308          4.274         -16.34         -133.7          129.6           91.5
    0.3804              -38.68          37.74          48.63          55.82         -5.854         -4.302          4.354         -16.29         -133.5          129.5          91.47
    0.3977              -38.68          37.71          48.63           55.8         -5.857         -4.295          4.442         -16.23         -133.3          129.4          91.43
     0.415              -38.68          37.67          48.62          55.79          -5.86         -4.287          4.541         -16.17         -133.1          129.3           91.4
    0.4323              -38.68          37.64          48.61          55.77         -5.863         -4.278          4.651          -16.1         -132.9          129.3          91.36
    0.4496              -38.68          37.59           48.6          55.75         -5.867         -4.269          4.774         -16.01         -132.6          129.2          91.31
    0.4669              -38.68          37.54          48.59          55.73         -5.872         -4.258          4.912         -15.92         -132.4          129.0          91.26
    0.4841              -38.68          37.49          48.58           55.7         -5.877         -4.245          5.069         -15.82         -132.0          128.9           91.2
    0.5014              -38.68          37.43          48.56          55.67         -5.882         -4.231          5.246          -15.7         -131.7          128.8          91.14
    0.5187              -38.68          37.35          48.54          55.64         -5.889         -4.215          5.449         -15.57         -131.3          128.6          91.06
     0.536              -38.68          37.27          48.53           55.6         -5.896         -4.196          5.682         -15.42         -130.8          128.4          90.98
    0.5533              -38.68          37.18           48.5          55.56         -5.905         -4.175          5.951         -15.24         -130.3          128.2          90.88
    0.5706              -38.69          37.07          48.48          55.51         -5.915          -4.15          6.263         -15.03         -129.6          128.0          90.76
    0.5879              -38.69          36.94          48.45          55.45         -5.927         -4.121          6.628         -14.79         -128.9          127.7          90.63
    0.6052              -38.69          36.79          48.41          55.38          -5.94         -4.087          7.059         -14.51         -128.0          127.3          90.47
    0.6225              -38.69          36.61          48.37          55.29         -5.957         -4.047          7.571         -14.17         -127.0          126.9          90.28
    0.6398              -38.69           36.4          48.32          55.19         -5.976         -3.998          8.184         -13.77         -125.7          126.4          90.05
    0.6571              -38.69          36.13          48.26          55.07           -6.0         -3.939          8.926         -13.28         -124.2          125.8          89.77
    0.6743               -38.7          35.82          48.18          54.93         -6.029         -3.867          9.833         -12.68         -122.4          125.1          89.44
    0.6916               -38.7          35.42          48.09          54.74         -6.064         -3.778          10.95         -11.94         -120.1          124.2          89.02
    0.7089              -38.71          34.93          47.98          54.52         -6.109         -3.667          12.35         -11.02         -117.3          123.1          88.51
    0.7262              -38.71          34.32          47.83          54.23         -6.165         -3.528          14.11         -9.865         -113.7          121.7          87.86
    0.7435              -38.72          33.53          47.65          53.87         -6.236         -3.351          16.34         -8.392         -109.2          119.9          87.03
    0.7608              -38.73          32.53          47.41           53.4         -6.328         -3.124           19.2         -6.507         -103.4          117.6          85.97
    0.7781              -38.74          31.24          47.11          52.81         -6.445         -2.832          22.87         -4.089         -95.91          114.7          84.61
    0.7954              -38.76           29.6          46.73          52.04         -6.594          -2.46          27.56        -0.9987         -86.39          110.9          82.87
    0.8127              -38.77          27.53          46.24          51.09         -6.782         -1.992          33.45          2.886         -74.42          106.2          80.69
      0.83               -38.8          25.01          45.65          49.92         -7.012         -1.422          40.64          7.621         -59.83          100.5          78.03
